<?xml version="1.0" encoding="UTF-8"?>
<svg width="3118px" height="1511px" viewBox="0 0 3118 1511" version="1.1" xmlns="http://www.w3.org/2000/svg" xmlns:xlink="http://www.w3.org/1999/xlink">
    <!-- Generator: Sketch 57.1 (83088) - https://sketch.com -->
    <title>Combined Shape</title>
    <desc>Created with Sketch.</desc>
    <defs>
        <linearGradient x1="0%" y1="61.7421253%" x2="100%" y2="38.2578747%" id="linearGradient-1">
            <stop stop-color="#FF5D00" offset="0%"></stop>
            <stop stop-color="#FFB238" offset="100%"></stop>
        </linearGradient>
    </defs>
    <g id="Page-1" stroke="none" stroke-width="1" fill="none" fill-rule="evenodd">
        <g id="Artboard" transform="translate(-126.000000, -303.000000)" fill="url(#linearGradient-1)" fill-rule="nonzero">
            <path d="M1275.51534,1247 L1275.51534,1298.408 L870.667,1298.408 L790.742614,1391.76596 L735.094708,1391.76596 L816.54,1298.408 L333.871693,1298.408 L333.871693,1814 L126,1814 L126,1717.48936 L174.919734,1717.48936 L174.919734,1762.592 L272.250193,1762.592 L272.250193,1298.408 L126,1298.408 L126,1247 L1275.51534,1247 Z M1538.87469,1247 C1572.16058,1247 1594.60301,1253.42594 1606.20264,1266.278 C1617.80227,1279.13006 1623.602,1304.20381 1623.602,1341.5 L1623.602,1388.372 C1623.602,1407.5241 1621.83686,1422.64394 1618.30654,1433.732 C1614.77622,1444.82006 1608.47217,1454.77396 1599.39419,1463.594 C1590.31622,1472.41404 1578.21244,1481.35995 1563.08249,1490.432 C1547.95254,1499.50405 1528.78822,1511.09593 1505.58896,1525.208 L1654.61824,1762.592 L1895.70722,1762.592 L1895.70722,1615.172 L1697.26771,1493.456 C1679.59489,1483.37595 1665.07815,1472.91805 1653.71705,1462.082 C1642.35595,1451.24595 1636.67549,1436.50409 1636.67549,1417.856 L1636.67549,1322.6 C1636.67549,1292.86385 1643.74451,1272.45206 1657.88276,1261.364 C1670.00127,1251.78795 1690.95587,1247 1720.74719,1247 L1956.29944,1247 L1956.29944,1386.86 L1901.76645,1386.86 L1901.76645,1298.408 L1697.26771,1298.408 L1697.26771,1419.368 L1885.10359,1536.548 C1895.20234,1543.60404 1904.66978,1549.77797 1913.50619,1555.07 C1922.3426,1560.36203 1930.04278,1566.03197 1936.60697,1572.08 C1949.73535,1584.17606 1956.29944,1599.04391 1956.29944,1616.684 L1956.299,1762.591 L2230.40778,1762.592 L2230.40778,1615.172 L2031.96826,1493.456 C2014.29544,1483.37595 1999.7787,1472.91805 1988.41761,1462.082 C1977.05651,1451.24595 1971.37604,1436.50409 1971.37604,1417.856 L1971.37604,1322.6 C1971.37604,1292.86385 1978.44507,1272.45206 1992.58332,1261.364 C2004.70183,1251.78795 2025.65643,1247 2055.44775,1247 L2284.18338,1247 L2284.18338,1386.86 L2229.65038,1386.86 L2229.65038,1298.408 L2031.96826,1298.408 L2031.96826,1419.368 L2219.80414,1536.548 C2229.9029,1543.60404 2239.37034,1549.77797 2248.20675,1555.07 C2257.04315,1560.36203 2264.74334,1566.03197 2271.30753,1572.08 C2284.43591,1584.17606 2291,1599.04391 2291,1616.684 L2291,1814 L1547.19612,1814 L1547.19612,1762.592 L1588.04679,1762.592 L1458.68635,1554.692 L1378.49801,1603.832 L1378.49801,1762.592 L1427.6701,1762.592 L1427.6701,1814 L1268.80641,1814 L1268.806,1813.999 L1177.59297,1814 L1177.59297,1762.52766 L1213.77681,1762.52766 L1213.77681,1480.94368 L1063.76462,1575.56195 L1063.76462,1762.52766 L1100.7023,1762.52766 L1100.7023,1814 L955.213092,1814 L955.213092,1762.52766 L1002.70439,1762.52766 L1002.70439,1486.2423 L955.213092,1486.2423 L955.213092,1435.52691 L1063.76462,1435.52691 L1063.76462,1514.24931 L1188.90042,1435.52691 C1196.94131,1430.48058 1205.98718,1427.95745 1216.0383,1427.95745 C1255.23766,1427.95745 1274.83705,1447.38554 1274.83705,1486.2423 L1274.83705,1762.52766 L1316.465,1762.527 L1316.46552,1247 L1538.87469,1247 Z M870.222364,1433.98936 C894.780137,1433.98936 912.571726,1438.79317 923.597665,1448.40094 C934.623604,1458.00871 940.13649,1475.70697 940.13649,1501.49624 L940.13649,1650.71317 L764.401,1762.698 L880.747071,1762.69866 L880.747071,1718.42846 L940.13649,1718.42846 L940.13649,1814 L349.133705,1814 L349.133705,1719.75133 C349.133705,1701.65549 351.410841,1689.34046 355.965181,1682.80585 C362.543673,1673.25527 377.471564,1661.44289 400.749304,1647.36835 L567.740947,1544.07181 L567.740947,1488.2766 L418.966574,1488.2766 L418.966574,1532.00798 L370.387187,1532.00798 L370.387187,1437.00532 L560.150418,1437.00532 C585.958346,1437.00532 604.048927,1442.53452 614.422702,1453.59309 C624.796477,1464.65165 629.983287,1480.7366 629.983287,1501.8484 L629.983287,1762.72872 L665.858155,1762.72856 C665.780945,1761.38 665.74234,1760.01354 665.74234,1758.62919 L665.74234,1509.08128 C665.74234,1459.01975 691.552673,1433.98936 743.174114,1433.98936 L870.222364,1433.98936 Z M566.236769,1602.88298 L409.440111,1701.83511 L409.440111,1762.72872 L566.236769,1762.72872 L566.236769,1602.88298 Z M764.401,1762.698 L725.883523,1762.69866 L725.883,1762.728 L764.354,1762.728 L764.401,1762.698 Z M879.830084,1488.2766 L726.048747,1488.2766 L726.048747,1723.70264 L879.830084,1626.43801 L879.830084,1488.2766 Z M2678.84834,1478.70048 C2725.23365,1527.92314 2722.58745,1586.62533 2722.58745,1586.62533 C2722.58745,1586.62533 2655.75946,1597.98821 2610.56267,1550.08608 C2565.29985,1502.11793 2575.57327,1440.67481 2575.57327,1440.67481 C2575.57327,1440.67481 2632.46302,1429.60988 2678.84834,1478.70048 Z M2820.69159,1468.45398 C2879.78991,1501.26678 2895.1053,1558.05259 2895.1053,1558.05259 C2895.1053,1558.05259 2834.87917,1589.02628 2777.26655,1557.10478 C2719.68697,1525.08424 2710.81036,1463.44459 2710.81036,1463.44459 C2710.81036,1463.44459 2761.62629,1435.60817 2820.69159,1468.45398 Z M1570.33844,1298.27128 L1380.37326,1298.27128 L1380.37326,1542.56383 L1570.33844,1425.69548 L1570.33844,1298.27128 Z M2518.88341,1429.88331 C2559.06104,1484.25693 2549.38221,1542.33239 2549.38221,1542.33239 C2549.38221,1542.33239 2481.82851,1545.50744 2442.57524,1492.58643 C2403.48708,1439.56636 2420.95814,1379.77344 2420.95814,1379.77344 C2420.95814,1379.77344 2478.7388,1375.5427 2518.88341,1429.88331 Z M2969.04111,1435.59118 C3033.91861,1454.43786 3061.45079,1506.4684 3061.45079,1506.4684 C3061.45079,1506.4684 3009.57701,1550.0204 2946.35034,1531.70184 C2883.05764,1513.31726 2860.74269,1455.14537 2860.74269,1455.14537 C2860.74269,1455.14537 2904.1306,1416.7115 2969.04111,1435.59118 Z M3198.05255,1395.35927 C3198.05255,1395.35927 3161.36565,1452.24838 3095.496,1453.34329 C3029.65937,1454.40519 2991.13217,1405.44601 2991.13217,1405.44601 C2991.13217,1405.44601 3021.34707,1355.95295 3088.83456,1354.89092 C3156.45513,1353.76185 3198.05255,1395.35927 3198.05255,1395.35927 Z M2349.78099,1279.60953 C2804.86381,1528.14608 3025.04926,1309.7008 3038.25036,1295.88799 L3038.58706,1295.53275 L3062.12661,1317.48628 C3059.74025,1320.00327 2821.91287,1566.62136 2348.70522,1315.66315 L2334.29355,1307.90529 L2349.78099,1279.60953 Z M2900.11714,1237.76655 C2900.11714,1237.76655 2901.99432,1296.56742 2854.97367,1345.1044 C2807.98605,1393.67439 2751.29627,1381.89242 2751.29627,1381.89242 C2751.29627,1381.89242 2741.82535,1320.25282 2787.59123,1272.97054 C2833.39013,1225.65524 2900.11714,1237.76655 2900.11714,1237.76655 Z M2758.93559,1231.43909 C2758.93559,1231.43909 2755.23284,1290.2074 2703.95333,1334.22157 C2652.64081,1378.20273 2597.3382,1361.07209 2597.3382,1361.07209 C2597.3382,1361.07209 2593.67837,1298.90377 2643.67011,1255.97922 C2693.76089,1213.21975 2758.93559,1231.43909 2758.93559,1231.43909 Z M3054.44626,1162.61011 C3054.44626,1162.61011 3063.98351,1220.684 3023.73095,1274.93215 C2983.4784,1329.18029 2925.73145,1324.92599 2925.73145,1324.92599 C2925.73145,1324.92599 2908.30319,1265.16894 2947.53211,1212.20849 C2986.76103,1159.24805 3054.44626,1162.61011 3054.44626,1162.61011 Z M2622.40898,1231.21916 C2622.40898,1231.21916 2601.96675,1286.3241 2540.15608,1313.73221 C2478.31239,1341.10732 2430.27483,1308.78885 2430.27483,1308.78885 C2430.27483,1308.78885 2444.67535,1248.17079 2504.93415,1221.45612 C2565.19294,1194.93956 2622.40898,1231.21916 2622.40898,1231.21916 Z M870.784123,1298.27128 L816.660817,1298.27128 L816.54,1298.408 L870.667,1298.408 L870.784123,1298.27128 Z M3243.99854,1164.67458 C3243.99854,1164.67458 3245.04955,1232.35675 3190.79902,1269.83405 C3136.61453,1307.31134 3077.44907,1287.90293 3077.44907,1287.90293 C3077.44907,1287.90293 3075.10958,1230.02654 3130.68088,1191.6247 C3186.2852,1153.18983 3243.99854,1164.67458 3243.99854,1164.67458 Z M2229.8281,484.897646 L2251.81572,508.403047 C2242.10689,517.457747 2021.03618,733.14018 2260.31423,1183.49016 L2267.70668,1197.20899 L2239.44258,1212.66266 C1975.67371,729.928211 2227.28558,487.241971 2229.8281,484.897646 Z M2117.39266,1028.08169 C2171.70288,1068.12533 2167.57098,1125.93622 2167.57098,1125.93622 C2167.57098,1125.93622 2107.80819,1143.43945 2054.75256,1104.32015 C2002.85511,1065.95087 2004.93005,1000.1812 2005.0338,997.565757 L2005.03722,997.485308 C2005.03722,997.485308 2063.01642,987.905998 2117.39266,1028.08169 Z M2316.03335,924.528089 C2316.03335,924.528089 2352.3147,981.741383 2325.76384,1041.96425 C2299.11393,1102.22015 2238.45993,1116.65299 2238.45993,1116.65299 C2238.45993,1116.65299 2206.20594,1068.61774 2233.51633,1006.77704 C2260.82672,944.936332 2316.03335,924.528089 2316.03335,924.528089 Z M2545.68094,458 C2605.16344,458.79519 2668.49451,472.504657 2733.91758,498.746292 C2864.85468,550.939875 2962.92391,642.61364 3025.37385,771.214632 C3025.4648,771.401573 3025.55149,771.589941 3025.63392,771.781162 C3027.70922,776.577478 3076.01932,889.31734 3076.98532,988.683716 L3077,991.6906 L3077,1005.72971 C3077,1013.50611 3070.80587,1019.82937 3063.10126,1019.9966 L3062.7881,1020 L2957.93127,1020 C2950.08203,1020 2943.71936,1013.61119 2943.71936,1005.72971 C2943.71936,905.459524 2904.05252,827.502361 2903.65175,826.727484 C2903.59632,826.621884 2903.53663,826.502013 2903.48405,826.393559 C2862.57935,742.059004 2799.33213,678.229427 2715.49896,636.678626 C2674.01584,616.127983 2630.04279,603.471663 2584.80489,599.062144 C2572.19893,597.75784 2558.76016,596.883071 2544.77991,596.456389 C2537.19379,596.224155 2531.1478,590.055977 2531.00262,582.472901 L2531,582.156132 L2531.28002,472.233522 C2531.28997,468.421927 2532.81775,464.773014 2535.52228,462.098762 C2538.2268,459.425937 2541.89205,457.974649 2545.68094,458 Z M2608.56496,837.002864 L2609.23749,837 C2651.65232,837 2697.64825,871.101649 2698,926.195649 C2698.07804,950.164196 2688.83544,972.684747 2671.97375,989.653934 C2655.33622,1006.39683 2632.71308,1016 2609.9043,1016 C2609.36171,1016 2608.82055,1015.99427 2608.27796,1015.98425 C2584.76954,1015.94271 2562.48765,1006.62742 2545.52314,989.742733 C2528.50295,972.802191 2519.08473,950.485017 2519,926.901743 C2518.92196,903.189568 2528.31305,880.727738 2545.44604,863.653998 C2562.26957,846.888101 2584.39931,837.443741 2607.83226,837.013377 L2608.56496,837.002864 L2609.23749,837 Z M2537.45606,630.000661 L2537.84203,630.00956 C2616.58896,633.052176 2697.4921,662.540615 2759.81663,710.913227 C2762.16289,712.703169 2796.74666,739.465367 2831.52477,787.967664 C2864.13094,833.441595 2903,907.444865 2903,1001.74887 C2903,1009.51482 2896.77225,1015.8296 2889.02582,1015.99661 L2888.71096,1016 L2783.28352,1016 C2775.91466,1016 2769.75466,1010.41071 2769.05878,1003.0956 C2766.36672,974.807108 2763.62751,956.99747 2759.29222,939.574038 C2748.70832,897.728444 2726.85752,860.143938 2696.11606,830.936247 C2664.22922,800.566033 2626.34696,780.770639 2583.48835,772.07414 L2582.18808,771.814007 L2534.83276,763.571154 C2528.10117,762.400073 2523.15896,756.643866 2523.00376,749.861338 L2523,749.532365 L2523,644.249289 C2523,640.374407 2524.5818,636.666263 2527.38245,633.979925 C2529.99773,631.472676 2533.47809,630.064094 2537.07073,630.002135 L2537.45606,630.000661 Z M2068.5071,868.124469 C2117.63308,914.540567 2106.60064,971.328531 2106.60064,971.328531 C2106.60064,971.328531 2045.08854,981.535429 1997.15108,936.373831 C1949.24665,891.179215 1960.57706,824.38746 1960.57706,824.38746 C1960.57706,824.38746 2019.34812,821.675357 2068.5071,868.124469 Z M2315.7804,787.909006 C2315.7804,787.909006 2334.03364,853.113584 2291.23909,903.16894 C2248.34549,953.191287 2186.17417,949.531632 2186.17417,949.531632 C2186.17417,949.531632 2169.07573,894.264695 2213.02599,842.921631 C2257.0753,791.545544 2315.7804,787.909006 2315.7804,787.909006 Z M1989.21721,651.877909 C1989.21721,651.877909 2045.93971,667.192565 2078.85314,726.255016 C2111.60149,785.350497 2083.86278,836.130966 2083.86278,836.130966 C2083.86278,836.130966 2022.22017,827.254781 1990.19808,769.677965 C1958.24203,712.101143 1989.21721,651.877909 1989.21721,651.877909 Z M2309.51865,646.932339 C2309.51865,646.932339 2321.59754,713.557099 2274.27996,759.353795 C2226.89636,805.084465 2165.31983,795.680023 2165.31983,795.680023 C2165.31983,795.680023 2153.5703,738.959956 2202.10961,692.007609 C2250.74798,644.956207 2309.51865,646.932339 2309.51865,646.932339 Z M2040.8369,485.507404 C2040.8369,485.507404 2092.83693,513.005252 2111.71753,577.912637 C2130.53209,642.820028 2092.1624,686.205843 2092.1624,686.205843 C2092.1624,686.205843 2033.9547,663.858957 2015.63526,600.635328 C1997.28281,537.312655 2040.8369,485.507404 2040.8369,485.507404 Z M2384.6457,492.511604 C2384.6457,492.511604 2387.97491,560.160568 2335.01192,599.387596 C2283.1729,637.765366 2224.67926,621.859055 2222.36025,621.207452 L2222.28899,621.187209 C2222.28899,621.187209 2218.03449,563.377009 2272.28524,523.19242 C2326.63505,482.974807 2384.6457,492.511604 2384.6457,492.511604 Z M2151.98003,348.780536 C2151.98003,348.780536 2193.57982,390.380325 2192.44617,458.005947 C2191.3775,525.500571 2141.97601,555.618981 2141.97601,555.618981 C2141.97601,555.618981 2093.08174,517.153436 2094.05189,451.27602 C2095.05717,387.361771 2148.63887,350.988958 2151.83145,348.877896 L2151.91266,348.824419 L2151.98003,348.780536 Z M2382.61415,303.001462 C2382.61415,303.001462 2394.09945,360.712023 2355.66274,416.247633 C2317.25904,471.882288 2259.37987,469.476879 2259.37987,469.476879 C2259.37987,469.476879 2240.00354,410.347287 2277.44962,356.198419 C2314.92872,301.950501 2382.61415,303.001462 2382.61415,303.001462 Z" id="Combined-Shape"></path>
        </g>
    </g>
</svg>